<!--?xml version="1.0" standalone="no"?-->
              <svg id="sw-js-blob-svg" viewBox="0 0 100 100" xmlns="http://www.w3.org/2000/svg" version="1.1">
                    <defs> 
                        <linearGradient id="sw-gradient" x1="0" x2="1" y1="1" y2="0">
                            <stop id="stop1" stop-color="rgba(241, 150, 143, 1)" offset="0%"></stop>
                            <stop id="stop2" stop-color="rgba(241, 149, 143, 1)" offset="100%"></stop>
                        </linearGradient>
                    </defs>
                <path fill="url(#sw-gradient)" d="M26.5,-33.2C32.7,-26.4,34.8,-16.5,35.5,-7C36.3,2.4,35.7,11.3,31.9,19.1C28.2,26.8,21.4,33.4,12.7,37.9C4,42.3,-6.5,44.5,-16.1,42C-25.7,39.4,-34.3,32.1,-36.4,23.5C-38.4,14.8,-33.9,4.8,-31.3,-4.8C-28.7,-14.4,-28.1,-23.5,-23.2,-30.5C-18.3,-37.5,-9.1,-42.4,0.5,-43C10.2,-43.6,20.4,-40,26.5,-33.2Z" width="100%" height="100%" transform="translate(50 50)" stroke-width="0" style="transition: all 0.3s ease 0s;" stroke="url(#sw-gradient)"></path>
              </svg>