<svg id="visual" viewBox="0 0 900 600" width="900" height="600" xmlns="http://www.w3.org/2000/svg" xmlns:xlink="http://www.w3.org/1999/xlink" version="1.1"><g stroke-width="1" stroke-linejoin="bevel"><path d="M418 309L330 230L383 362Z" fill="#277297" stroke="#277297"></path><path d="M330 230L276 284L383 362Z" fill="#15384f" stroke="#15384f"></path><path d="M418 309L362 201L330 230Z" fill="#205a7a" stroke="#205a7a"></path><path d="M330 230L235 274L276 284Z" fill="#1d4e6b" stroke="#1d4e6b"></path><path d="M276 284L331 425L383 362Z" fill="#205a7a" stroke="#205a7a"></path><path d="M176 232L235 274L262 129Z" fill="#1d4e6b" stroke="#1d4e6b"></path><path d="M164 418L331 425L276 284Z" fill="#297ea6" stroke="#297ea6"></path><path d="M331 425L368 463L383 362Z" fill="#1d4e6b" stroke="#1d4e6b"></path><path d="M522 439L535 272L418 309Z" fill="#297ea6" stroke="#297ea6"></path><path d="M262 129L235 274L330 230Z" fill="#246688" stroke="#246688"></path><path d="M196 478L293 483L331 425Z" fill="#19435d" stroke="#19435d"></path><path d="M522 439L418 309L383 362Z" fill="#0c2435" stroke="#0c2435"></path><path d="M418 309L521 211L362 201Z" fill="#15384f" stroke="#15384f"></path><path d="M164 418L276 284L235 274Z" fill="#1d4e6b" stroke="#1d4e6b"></path><path d="M331 425L293 483L368 463Z" fill="#112e42" stroke="#112e42"></path><path d="M434 82L262 129L362 201Z" fill="#15384f" stroke="#15384f"></path><path d="M362 201L262 129L330 230Z" fill="#0c2435" stroke="#0c2435"></path><path d="M535 272L521 211L418 309Z" fill="#112e42" stroke="#112e42"></path><path d="M425 600L485 462L368 463Z" fill="#277297" stroke="#277297"></path><path d="M368 463L485 462L383 362Z" fill="#0c2435" stroke="#0c2435"></path><path d="M90 317L164 418L235 274Z" fill="#19435d" stroke="#19435d"></path><path d="M485 462L522 439L383 362Z" fill="#277297" stroke="#277297"></path><path d="M164 418L196 478L331 425Z" fill="#205a7a" stroke="#205a7a"></path><path d="M521 211L434 82L362 201Z" fill="#00101c" stroke="#00101c"></path><path d="M262 129L133 200L176 232Z" fill="#112e42" stroke="#112e42"></path><path d="M176 232L90 317L235 274Z" fill="#1d4e6b" stroke="#1d4e6b"></path><path d="M133 200L90 317L176 232Z" fill="#081a28" stroke="#081a28"></path><path d="M164 418L101 430L196 478Z" fill="#297ea6" stroke="#297ea6"></path><path d="M263 0L206 64L262 129Z" fill="#00101c" stroke="#00101c"></path><path d="M262 129L206 64L133 200Z" fill="#246688" stroke="#246688"></path><path d="M90 317L101 430L164 418Z" fill="#00101c" stroke="#00101c"></path><path d="M608 417L626 303L535 272Z" fill="#19435d" stroke="#19435d"></path><path d="M535 272L626 220L521 211Z" fill="#1d4e6b" stroke="#1d4e6b"></path><path d="M521 211L519 71L434 82Z" fill="#00101c" stroke="#00101c"></path><path d="M570 506L608 417L522 439Z" fill="#205a7a" stroke="#205a7a"></path><path d="M522 439L608 417L535 272Z" fill="#1d4e6b" stroke="#1d4e6b"></path><path d="M606 135L519 71L521 211Z" fill="#205a7a" stroke="#205a7a"></path><path d="M434 82L263 0L262 129Z" fill="#205a7a" stroke="#205a7a"></path><path d="M626 303L626 220L535 272Z" fill="#19435d" stroke="#19435d"></path><path d="M187 600L293 483L196 478Z" fill="#0c2435" stroke="#0c2435"></path><path d="M187 600L326 600L293 483Z" fill="#246688" stroke="#246688"></path><path d="M293 483L326 600L368 463Z" fill="#246688" stroke="#246688"></path><path d="M485 462L570 506L522 439Z" fill="#246688" stroke="#246688"></path><path d="M506 600L570 506L485 462Z" fill="#205a7a" stroke="#205a7a"></path><path d="M626 220L606 135L521 211Z" fill="#00101c" stroke="#00101c"></path><path d="M474 0L420 0L434 82Z" fill="#19435d" stroke="#19435d"></path><path d="M326 600L425 600L368 463Z" fill="#0c2435" stroke="#0c2435"></path><path d="M420 0L263 0L434 82Z" fill="#19435d" stroke="#19435d"></path><path d="M164 0L108 83L206 64Z" fill="#081a28" stroke="#081a28"></path><path d="M206 64L108 83L133 200Z" fill="#00101c" stroke="#00101c"></path><path d="M0 232L0 275L90 317Z" fill="#0c2435" stroke="#0c2435"></path><path d="M519 71L474 0L434 82Z" fill="#0c2435" stroke="#0c2435"></path><path d="M636 0L474 0L519 71Z" fill="#15384f" stroke="#15384f"></path><path d="M425 600L506 600L485 462Z" fill="#297ea6" stroke="#297ea6"></path><path d="M76 507L187 600L196 478Z" fill="#00101c" stroke="#00101c"></path><path d="M0 419L76 507L101 430Z" fill="#297ea6" stroke="#297ea6"></path><path d="M101 430L76 507L196 478Z" fill="#1d4e6b" stroke="#1d4e6b"></path><path d="M728 361L689 260L626 303Z" fill="#297ea6" stroke="#297ea6"></path><path d="M626 303L689 260L626 220Z" fill="#0c2435" stroke="#0c2435"></path><path d="M626 220L723 221L606 135Z" fill="#0c2435" stroke="#0c2435"></path><path d="M723 221L689 260L803 291Z" fill="#081a28" stroke="#081a28"></path><path d="M0 232L90 317L133 200Z" fill="#1d4e6b" stroke="#1d4e6b"></path><path d="M90 317L0 419L101 430Z" fill="#277297" stroke="#277297"></path><path d="M263 0L164 0L206 64Z" fill="#277297" stroke="#277297"></path><path d="M0 114L0 232L133 200Z" fill="#277297" stroke="#277297"></path><path d="M0 114L133 200L108 83Z" fill="#205a7a" stroke="#205a7a"></path><path d="M0 275L0 419L90 317Z" fill="#15384f" stroke="#15384f"></path><path d="M728 361L626 303L608 417Z" fill="#00101c" stroke="#00101c"></path><path d="M689 260L723 221L626 220Z" fill="#19435d" stroke="#19435d"></path><path d="M606 135L636 0L519 71Z" fill="#0c2435" stroke="#0c2435"></path><path d="M663 526L728 361L608 417Z" fill="#277297" stroke="#277297"></path><path d="M663 526L608 417L570 506Z" fill="#19435d" stroke="#19435d"></path><path d="M596 600L663 526L570 506Z" fill="#19435d" stroke="#19435d"></path><path d="M506 600L596 600L570 506Z" fill="#0c2435" stroke="#0c2435"></path><path d="M0 0L0 114L108 83Z" fill="#15384f" stroke="#15384f"></path><path d="M164 0L88 0L108 83Z" fill="#205a7a" stroke="#205a7a"></path><path d="M0 419L0 511L76 507Z" fill="#112e42" stroke="#112e42"></path><path d="M76 507L70 600L187 600Z" fill="#19435d" stroke="#19435d"></path><path d="M0 511L70 600L76 507Z" fill="#112e42" stroke="#112e42"></path><path d="M667 0L636 0L606 135Z" fill="#1d4e6b" stroke="#1d4e6b"></path><path d="M723 221L728 85L606 135Z" fill="#081a28" stroke="#081a28"></path><path d="M781 188L728 85L723 221Z" fill="#297ea6" stroke="#297ea6"></path><path d="M728 85L667 0L606 135Z" fill="#1d4e6b" stroke="#1d4e6b"></path><path d="M596 600L667 600L663 526Z" fill="#081a28" stroke="#081a28"></path><path d="M663 526L782 513L728 361Z" fill="#205a7a" stroke="#205a7a"></path><path d="M803 291L689 260L728 361Z" fill="#00101c" stroke="#00101c"></path><path d="M803 291L781 188L723 221Z" fill="#297ea6" stroke="#297ea6"></path><path d="M819 429L803 291L728 361Z" fill="#081a28" stroke="#081a28"></path><path d="M88 0L0 0L108 83Z" fill="#277297" stroke="#277297"></path><path d="M0 511L0 600L70 600Z" fill="#00101c" stroke="#00101c"></path><path d="M667 600L782 513L663 526Z" fill="#1d4e6b" stroke="#1d4e6b"></path><path d="M781 188L776 71L728 85Z" fill="#0c2435" stroke="#0c2435"></path><path d="M728 85L796 0L667 0Z" fill="#00101c" stroke="#00101c"></path><path d="M796 0L776 71L900 91Z" fill="#0c2435" stroke="#0c2435"></path><path d="M782 513L819 429L728 361Z" fill="#112e42" stroke="#112e42"></path><path d="M900 91L776 71L781 188Z" fill="#00101c" stroke="#00101c"></path><path d="M776 71L796 0L728 85Z" fill="#0c2435" stroke="#0c2435"></path><path d="M900 199L781 188L803 291Z" fill="#205a7a" stroke="#205a7a"></path><path d="M900 419L803 291L819 429Z" fill="#00101c" stroke="#00101c"></path><path d="M900 419L900 265L803 291Z" fill="#112e42" stroke="#112e42"></path><path d="M900 265L900 199L803 291Z" fill="#0c2435" stroke="#0c2435"></path><path d="M667 600L826 600L782 513Z" fill="#1d4e6b" stroke="#1d4e6b"></path><path d="M900 495L900 419L819 429Z" fill="#00101c" stroke="#00101c"></path><path d="M900 495L819 429L782 513Z" fill="#112e42" stroke="#112e42"></path><path d="M826 600L900 495L782 513Z" fill="#205a7a" stroke="#205a7a"></path><path d="M900 199L900 91L781 188Z" fill="#112e42" stroke="#112e42"></path><path d="M900 91L900 0L796 0Z" fill="#246688" stroke="#246688"></path><path d="M826 600L900 600L900 495Z" fill="#246688" stroke="#246688"></path></g></svg>