<?xml version="1.0" standalone="no"?>
<!DOCTYPE svg PUBLIC "-//W3C//DTD SVG 20010904//EN"
 "http://www.w3.org/TR/2001/REC-SVG-20010904/DTD/svg10.dtd">
<svg version="1.0" xmlns="http://www.w3.org/2000/svg"
 width="1280.000000pt" height="980.000000pt" viewBox="0 0 1280.000000 980.000000"
 preserveAspectRatio="xMidYMid meet">
<metadata>
Created by potrace 1.15, written by Peter Selinger 2001-2017
</metadata>
<g transform="translate(0.000000,980.000000) scale(0.100000,-0.100000)"
fill="#000000" stroke="none">
<path d="M12260 9757 c-22 -20 -205 -127 -216 -127 -6 0 -62 23 -125 51 l-114
52 -75 -16 c-350 -71 -804 -162 -890 -179 -107 -21 -153 -30 -345 -68 -182
-36 -235 -47 -350 -69 -60 -12 -144 -28 -185 -37 -41 -8 -122 -24 -180 -36
-58 -11 -134 -26 -170 -33 -36 -7 -112 -22 -170 -33 -373 -73 -517 -106 -605
-137 -55 -20 -172 -62 -260 -93 l-160 -55 -235 -7 c-221 -6 -240 -8 -320 -34
-47 -15 -130 -41 -185 -58 -58 -17 -185 -72 -305 -130 l-205 -100 -220 -7
c-217 -7 -221 -7 -295 -38 -41 -17 -126 -51 -188 -75 -108 -41 -120 -49 -283
-182 -165 -134 -176 -141 -342 -218 -191 -89 -222 -100 -352 -128 -218 -46
-165 -9 -431 -297 -282 -304 -404 -408 -515 -439 -411 -116 -390 -107 -491
-200 -50 -46 -118 -97 -156 -117 -207 -109 -215 -114 -371 -260 l-156 -145
-94 -185 -93 -185 -187 -99 -186 -98 -3 -37 c-4 -48 -4 -48 177 2 119 34 165
53 273 113 128 71 132 74 223 183 52 61 136 176 189 256 l95 145 108 71 c131
86 129 85 281 122 71 17 178 52 251 84 70 30 186 70 258 89 l132 34 104 91
103 91 125 6 c68 4 134 8 146 11 14 3 45 43 98 129 43 71 83 125 92 125 8 0
83 -30 167 -66 l153 -66 118 81 c110 76 145 93 145 73 0 -11 -88 -174 -101
-187 -5 -5 -65 -12 -132 -15 l-122 -5 -72 -96 -73 -96 -116 -37 c-172 -55
-299 -110 -342 -148 -21 -18 -133 -118 -248 -222 -115 -104 -288 -258 -384
-341 -218 -189 -428 -422 -441 -488 -6 -36 -12 -138 -10 -174 1 -7 56 -58 123
-114 68 -56 131 -109 140 -117 9 -8 99 -31 198 -52 145 -29 191 -35 228 -29
26 5 97 15 157 24 l110 16 18 -22 c37 -46 23 -56 -128 -83 -84 -16 -386 -129
-424 -160 -8 -6 -67 -81 -130 -167 -67 -90 -178 -221 -263 -310 -135 -142
-388 -457 -388 -483 0 -17 30 -179 36 -199 6 -20 -16 -20 274 -1 54 4 90 2 90
-3 0 -6 -36 -38 -80 -72 -44 -34 -80 -63 -81 -64 0 -1 -7 -73 -14 -160 -7 -87
-16 -161 -20 -165 -3 -3 -72 -12 -152 -19 -80 -6 -150 -16 -155 -21 -8 -8 70
-171 99 -204 13 -15 44 -17 281 -16 l267 0 141 63 140 63 120 -14 c65 -7 129
-16 141 -19 13 -3 82 -39 154 -81 l131 -76 97 42 c53 24 115 51 138 62 l42 20
118 -30 c73 -18 118 -33 118 -41 0 -17 -278 -120 -370 -137 -38 -7 -101 -18
-140 -24 -38 -7 -81 -19 -95 -28 -14 -9 -71 -60 -126 -114 l-102 -99 -171 21
-171 21 -127 -95 c-71 -52 -173 -140 -228 -196 -55 -56 -112 -108 -127 -116
-15 -8 -62 -23 -105 -33 -106 -26 -236 -62 -367 -102 -107 -32 -110 -32 -195
-21 -47 7 -122 15 -166 18 l-80 6 -89 -108 c-49 -59 -136 -158 -194 -219
l-104 -113 -167 5 -166 5 -110 -85 c-60 -48 -174 -125 -253 -173 l-143 -87
-99 -127 -100 -128 -138 -77 -139 -77 -254 -295 c-140 -163 -294 -351 -342
-420 -87 -123 -111 -174 -51 -111 35 36 184 254 184 268 0 16 50 24 240 40
l115 9 101 106 100 106 110 -6 c60 -3 132 -8 161 -10 60 -6 58 -9 103 114 67
178 76 201 87 212 7 7 57 -1 174 -30 168 -42 198 -47 215 -33 5 5 60 31 123
58 127 54 114 42 244 235 l72 107 136 67 c117 59 140 67 170 60 18 -4 97 -22
174 -41 l140 -35 145 37 c144 36 146 37 240 107 52 39 161 138 241 220 l146
149 154 28 c149 27 160 31 292 99 l138 71 158 0 c144 0 172 3 317 35 87 20
166 38 175 41 9 2 56 75 104 162 48 86 94 165 103 175 13 15 35 17 179 17
l163 0 153 60 c130 50 175 63 311 85 l160 26 126 122 126 122 265 118 264 117
173 -59 173 -59 143 -1 142 -2 145 106 c81 59 157 107 174 109 17 3 95 10 174
16 l144 11 166 -80 166 -81 175 44 c96 24 182 47 191 51 10 3 53 89 99 193 46
103 89 195 95 205 7 10 78 78 159 150 129 117 165 144 313 229 93 54 174 103
181 109 13 14 17 176 4 196 -6 9 -39 -6 -116 -52 -60 -36 -113 -65 -117 -65
-4 0 -58 56 -119 125 -62 69 -115 125 -118 125 -3 0 -44 -35 -91 -78 -159
-143 -135 -132 -274 -132 -67 0 -171 5 -231 11 l-110 12 -115 70 -116 70 -75
-12 c-41 -6 -147 -18 -235 -26 l-160 -15 -105 30 c-58 16 -112 30 -121 30 -8
0 -67 -27 -130 -59 -111 -57 -320 -131 -372 -131 -14 0 -36 -4 -49 -9 -13 -4
-53 -11 -89 -15 l-65 -7 -115 86 c-108 81 -116 85 -154 80 -209 -27 -195 -27
-295 -5 -118 27 -120 27 -120 38 0 5 35 40 78 79 43 39 83 82 89 95 7 12 34
70 61 128 40 85 64 120 124 185 80 86 98 112 98 144 0 16 6 21 25 21 18 0 51
28 127 106 84 87 120 115 200 160 54 30 100 59 102 63 3 5 14 69 25 143 17
120 24 143 67 231 27 53 54 97 60 97 7 0 63 -18 127 -40 63 -22 122 -40 130
-40 9 0 60 52 112 115 55 66 103 115 113 115 9 0 62 -7 117 -16 55 -8 121 -17
146 -20 l46 -6 76 123 c42 68 92 149 110 180 32 52 45 61 198 150 90 51 176
105 191 119 15 14 75 97 133 185 112 171 113 173 86 255 -5 14 -14 50 -21 80
-20 94 -19 92 -48 87 -15 -3 -81 -15 -147 -26 -66 -12 -145 -26 -175 -31 -30
-6 -152 -10 -270 -9 l-215 3 -105 -33 c-241 -74 -223 -71 -313 -60 -45 6 -134
16 -197 23 l-115 13 -90 -32 c-49 -18 -140 -51 -201 -74 -61 -23 -178 -62
-260 -87 -82 -25 -160 -49 -174 -54 -14 -4 -99 -38 -190 -75 -222 -90 -430
-195 -606 -305 -50 -32 -106 -60 -125 -63 -189 -29 -235 -35 -241 -29 -4 4
-19 64 -33 132 -13 69 -27 135 -31 146 -3 12 -2 24 3 27 5 3 74 -12 153 -35
l143 -40 104 54 104 53 77 112 c42 62 83 113 90 113 10 0 206 -47 267 -65 16
-5 40 15 112 87 84 85 98 104 157 224 59 121 67 132 96 138 75 14 307 5 456
-19 l41 -7 94 103 c51 57 102 108 114 113 83 34 345 86 441 86 25 0 52 19 135
91 57 50 111 94 119 99 9 5 68 -7 150 -31 74 -21 145 -38 158 -39 61 -1 290
52 787 180 66 17 251 64 410 105 295 76 511 132 870 225 110 28 288 74 395
101 107 28 255 66 327 85 129 33 139 34 322 34 165 0 191 2 209 18 26 22 239
277 251 300 5 9 32 87 61 172 83 245 86 253 122 273 17 10 98 52 179 93 81 41
154 83 164 94 13 14 17 39 18 107 l2 88 -125 7 c-150 9 -284 29 -340 52 -9 4
-22 0 -30 -7z m-5846 -2188 c10 -9 -19 -72 -41 -90 -15 -13 -218 53 -218 71 0
24 75 39 165 34 47 -3 89 -10 94 -15z"/>
<path d="M506 277 c-18 -17 -78 -37 -238 -76 -117 -30 -216 -57 -221 -61 -4
-3 0 -23 8 -44 12 -28 21 -37 33 -33 9 3 81 24 160 48 137 41 145 45 210 102
61 53 91 87 78 87 -3 0 -16 -10 -30 -23z"/>
</g>
</svg>
