<?xml version="1.0" ?><!DOCTYPE svg  PUBLIC '-//W3C//DTD SVG 1.1//EN'  'http://www.w3.org/Graphics/SVG/1.1/DTD/svg11.dtd'><svg width="512px" height="512px" viewBox="0 0 512 512" enable-background="new 0 0 512 512" id="passport" version="1.1" xml:space="preserve" xmlns="http://www.w3.org/2000/svg" xmlns:xlink="http://www.w3.org/1999/xlink"><path d="M280.479,112.267v31.414c6.739-0.527,13.85-1.608,21.313-3.429C294.863,128.216,286.668,118.632,280.479,112.267z"/><path d="M322.77,222.608c6.733,2.49,13.676,5.564,20.788,9.237c6.993-11.006,11.464-23.767,12.576-37.467h-27.287  C328.229,203.898,326.198,213.315,322.77,222.608z"/><path d="M266.983,260.986v-34.472c-8.465,0.254-16.173,1.36-23.02,2.922C249.472,240.101,257.191,250.628,266.983,260.986z"/><path d="M211.749,242.261c11.253,12.753,26.363,22.02,43.499,25.948c-10.451-11.398-18.632-23.057-24.452-34.938  C222.079,236.382,215.612,239.889,211.749,242.261z"/><path d="M320.998,148.579c3.998,9.776,6.891,20.609,7.764,32.304h27.372c-1.233-15.183-6.587-29.213-14.933-40.979  C334.288,143.36,327.545,146.239,320.998,148.579z"/><rect height="425.959" width="34.11" x="101.362" y="43.021"/><path d="M332.221,129.252c-10.201-10.221-23.059-17.786-37.436-21.574c6.52,7.241,14.05,16.925,20.391,28.621  C320.699,134.384,326.393,132.03,332.221,129.252z"/><path d="M220.13,194.378h-28.801c1.099,13.526,5.476,26.132,12.316,37.042c4.305-2.715,11.766-6.892,21.938-10.595  C222.541,212.11,220.718,203.29,220.13,194.378z"/><path d="M254.614,107.205c-15.475,3.678-29.272,11.708-40.027,22.73c4.293,2.413,10.468,5.426,18.314,8.055  C239.556,125.278,247.692,114.836,254.614,107.205z"/><path d="M227.278,150.315c-9.417-3.279-16.666-7.032-21.414-9.844c-8.118,11.648-13.323,25.471-14.536,40.411h28.867  C221.018,169.874,223.639,159.635,227.278,150.315z"/><path d="M238.526,216.87c8.353-2.086,17.896-3.579,28.457-3.875v-18.617h-33.309C234.263,201.922,235.878,209.424,238.526,216.87z"/><path d="M233.727,180.883h33.257v-23.331c-9.796-0.276-18.704-1.591-26.611-3.445C237.025,162.32,234.567,171.299,233.727,180.883z"/><path d="M266.983,144.014v-30.188c-6.223,6.587-14.057,16.078-20.602,27.795C252.607,142.905,259.503,143.788,266.983,144.014z"/><path d="M294.148,267.736c16.119-4.109,30.354-12.96,41.131-24.981c-6.145-3.073-12.135-5.644-17.951-7.755  C311.658,246.12,303.895,257.041,294.148,267.736z"/><path d="M315.299,194.378h-34.82v18.906c9.206,0.648,19.036,2.245,29.425,5.146C312.89,210.472,314.682,202.449,315.299,194.378z"/><path d="M410.638,427.959V84.041c0-22.655-18.366-41.02-41.021-41.02H147.04v425.959h222.578  C392.271,468.979,410.638,450.614,410.638,427.959z M298.768,419.975H192.179v-13.551h106.588V419.975z M355.283,419.975h-32.947  v-13.551h32.947V419.975z M355.283,381.544H192.179v-13.551h163.104V381.544z M216.293,343.112v-13.55H331.17v13.55H216.293z   M273.73,283.826c-53.042,0-96.196-43.154-96.196-96.196c0-53.043,43.154-96.197,96.196-96.197  c53.043,0,96.197,43.154,96.197,96.197C369.928,240.672,326.773,283.826,273.73,283.826z"/><path d="M307.986,152.616c-9.68,2.572-18.869,4.023-27.508,4.636v23.631h34.762C314.353,170.717,311.648,161.227,307.986,152.616z"/><path d="M280.479,226.855v35.706c10.051-10.395,17.984-20.964,23.718-31.67C295.854,228.702,287.938,227.439,280.479,226.855z"/></svg>