<?xml version="1.0" standalone="no"?>
<!DOCTYPE svg PUBLIC "-//W3C//DTD SVG 20010904//EN"
 "http://www.w3.org/TR/2001/REC-SVG-20010904/DTD/svg10.dtd">
<svg version="1.0" xmlns="http://www.w3.org/2000/svg"
 width="747.000000pt" height="1280.000000pt" viewBox="0 0 747.000000 1280.000000"
 preserveAspectRatio="xMidYMid meet">
<metadata>
Created by potrace 1.15, written by Peter Selinger 2001-2017
</metadata>
<g transform="translate(0.000000,1280.000000) scale(0.100000,-0.100000)"
fill="#000000" stroke="none">
<path d="M3180 12786 c-25 -7 -52 -15 -60 -19 -8 -4 -43 -13 -78 -21 -35 -8
-69 -19 -75 -24 -7 -5 -34 -15 -62 -21 -27 -7 -57 -15 -65 -18 -8 -4 -19 -7
-25 -8 -34 -8 -123 -40 -140 -51 -11 -6 -44 -17 -73 -24 -28 -7 -55 -16 -58
-21 -3 -5 -15 -9 -27 -9 -12 0 -33 -9 -47 -20 -14 -11 -29 -20 -34 -20 -5 0
-24 -11 -41 -25 -47 -35 -131 -71 -200 -85 -33 -7 -64 -16 -70 -20 -5 -4 -30
-14 -55 -21 -25 -7 -63 -27 -85 -44 -47 -37 -138 -82 -184 -91 -18 -4 -61 -25
-95 -48 -33 -23 -73 -48 -88 -56 -14 -8 -63 -37 -108 -65 -45 -27 -89 -55 -98
-60 -9 -6 -44 -28 -77 -50 -63 -41 -103 -65 -145 -86 -14 -8 -51 -37 -83 -66
-32 -29 -72 -60 -89 -69 -16 -8 -43 -30 -59 -48 -19 -22 -45 -38 -76 -46 -41
-11 -68 -32 -178 -139 -72 -69 -155 -144 -184 -166 -124 -95 -131 -103 -131
-156 0 -37 4 -49 15 -49 16 0 55 -34 55 -49 0 -10 140 -20 146 -10 2 3 52 9
111 13 86 6 114 12 140 29 18 12 34 29 36 37 2 9 20 24 39 33 19 9 41 23 48
32 7 8 23 15 35 15 12 0 28 7 35 15 7 9 29 15 52 15 28 0 70 15 141 50 86 43
102 49 109 35 10 -16 58 -21 74 -7 5 5 29 15 54 22 25 8 51 18 59 24 8 6 15
10 15 8 1 -4 24 4 98 34 32 13 62 24 67 24 6 0 34 11 63 24 29 14 67 28 83 32
17 4 39 13 50 20 11 8 25 14 32 14 7 0 32 9 56 19 23 11 60 25 82 32 22 7 46
17 52 22 16 12 27 -14 21 -48 -5 -23 -4 -23 71 16 41 21 79 39 84 39 24 0 137
67 179 105 26 25 52 45 58 45 6 0 31 14 55 30 24 17 47 30 51 30 4 0 31 22 60
50 29 27 70 57 91 67 52 24 151 103 210 167 41 44 57 55 94 61 36 6 55 18 107
68 34 34 62 66 62 71 0 5 20 31 45 57 25 26 45 57 45 69 0 11 4 20 9 20 4 0
14 28 21 63 8 34 22 76 32 92 13 22 18 50 18 103 l0 72 -112 -1 c-62 -1 -133
-7 -158 -13z"/>
<path d="M5521 11660 c-18 -16 -38 -20 -94 -20 -50 0 -75 -5 -88 -16 -9 -8
-50 -20 -91 -25 -40 -6 -77 -15 -82 -20 -6 -5 -19 -9 -30 -9 -12 0 -30 -7 -40
-15 -11 -8 -40 -15 -65 -15 -25 0 -55 -7 -65 -15 -11 -8 -26 -15 -34 -15 -8 0
-25 -9 -39 -20 -16 -12 -41 -20 -65 -20 -24 0 -52 -9 -77 -25 -29 -20 -56 -27
-112 -32 -62 -5 -92 -14 -179 -56 -58 -28 -116 -59 -129 -69 -13 -10 -40 -18
-61 -18 -21 0 -51 -7 -66 -15 -16 -8 -36 -15 -44 -15 -8 0 -28 -8 -45 -18 -16
-10 -52 -24 -79 -31 -27 -7 -60 -21 -74 -32 -15 -12 -40 -19 -66 -19 -23 0
-51 -7 -62 -15 -10 -8 -25 -15 -33 -15 -7 0 -34 -14 -60 -32 -32 -22 -61 -32
-96 -35 -46 -4 -79 -15 -147 -50 -14 -7 -29 -13 -32 -13 -10 0 -7 115 4 126 5
5 11 77 12 159 l3 150 -75 -3 c-56 -3 -80 -9 -96 -23 -11 -10 -28 -19 -37 -19
-22 0 -90 -32 -100 -47 -4 -7 -16 -13 -25 -13 -25 0 -111 -60 -159 -111 -97
-103 -243 -240 -263 -247 -5 -2 14 -51 43 -108 l52 -105 -25 -20 c-14 -11 -40
-27 -57 -35 -18 -8 -33 -19 -33 -24 0 -6 -5 -10 -11 -10 -6 0 -30 -13 -54 -30
-24 -16 -46 -30 -49 -30 -3 0 -32 -18 -63 -40 -32 -22 -64 -40 -70 -40 -7 0
-13 -9 -13 -20 0 -11 -4 -20 -10 -20 -5 0 -10 -5 -10 -12 0 -9 3 -9 12 0 7 7
39 12 72 12 45 0 68 6 86 20 23 18 42 20 261 20 189 0 239 3 248 14 8 9 41 15
99 18 49 2 102 11 122 20 52 24 131 48 155 48 11 0 26 5 31 10 6 6 57 14 115
18 59 5 117 15 134 24 17 9 55 19 85 23 30 4 69 13 85 20 17 7 44 17 60 23 17
6 39 14 50 18 11 4 22 8 25 9 3 1 16 6 30 12 14 6 50 14 80 18 30 4 60 11 65
15 6 4 37 15 70 25 33 9 69 21 80 25 11 5 42 14 70 20 27 6 55 16 62 21 6 6
40 17 74 25 35 8 68 18 73 23 6 5 31 12 56 16 25 4 62 18 82 31 21 13 42 24
47 24 5 0 14 6 20 13 6 8 28 19 49 25 21 7 47 21 57 32 11 12 46 34 80 50 61
30 68 34 142 83 26 17 55 27 77 27 24 0 52 11 84 33 26 17 65 41 86 52 39 20
86 72 86 95 0 7 23 37 50 66 28 29 50 58 50 64 0 6 11 21 25 33 13 12 27 39
31 60 l6 37 -78 0 c-64 -1 -84 -5 -103 -20z"/>
<path d="M5955 11122 c-6 -4 -35 -14 -65 -21 -30 -8 -59 -17 -65 -21 -5 -4
-39 -8 -75 -9 -59 0 -130 -17 -170 -40 -9 -5 -36 -12 -60 -16 -25 -4 -59 -15
-77 -25 -17 -10 -57 -23 -90 -30 -32 -6 -71 -17 -88 -25 -16 -7 -50 -16 -75
-20 -25 -4 -58 -15 -75 -25 -16 -10 -46 -21 -65 -25 -19 -3 -44 -10 -55 -14
-11 -5 -47 -17 -80 -27 -33 -10 -64 -21 -70 -25 -5 -4 -30 -10 -55 -14 -25 -4
-54 -12 -65 -18 -11 -6 -23 -11 -27 -12 -3 0 -10 -3 -14 -7 -4 -5 -15 -8 -24
-8 -9 0 -25 -9 -34 -19 -22 -24 -131 -77 -176 -86 -19 -3 -44 -10 -55 -15 -11
-4 -47 -16 -80 -25 -42 -13 -74 -31 -107 -61 -26 -24 -53 -44 -61 -44 -8 0
-27 -6 -43 -14 -16 -8 -49 -17 -74 -21 -33 -6 -57 -18 -91 -50 -35 -33 -56
-44 -94 -49 -26 -4 -58 -14 -69 -21 -12 -7 -36 -16 -54 -20 -19 -4 -50 -23
-70 -44 -21 -21 -59 -46 -87 -56 -27 -10 -65 -28 -82 -42 -31 -22 -99 -52
-133 -58 -33 -5 -94 -38 -141 -75 -27 -21 -62 -41 -79 -45 -16 -4 -32 -11 -35
-16 -4 -5 -14 -9 -23 -9 -9 0 -35 -14 -56 -30 -22 -17 -44 -30 -49 -30 -5 0
-20 -9 -34 -20 -16 -13 -41 -20 -67 -20 -23 0 -47 -5 -52 -10 -14 -14 -64 10
-64 30 0 13 40 46 91 75 26 14 133 87 200 135 31 22 60 40 64 40 3 0 22 12 41
26 29 22 34 33 34 66 0 39 0 40 -32 33 -18 -4 -37 -10 -43 -14 -5 -4 -35 -13
-65 -20 -30 -8 -59 -17 -65 -21 -5 -4 -46 -15 -90 -25 -44 -10 -85 -22 -91
-26 -6 -5 -35 -14 -65 -20 -30 -6 -59 -15 -65 -20 -6 -5 -14 -6 -17 -2 -4 3
-15 0 -24 -8 -10 -9 -105 -58 -210 -110 -215 -105 -232 -122 -125 -127 58 -3
62 -4 62 -27 0 -21 -30 -65 -45 -65 -2 0 -23 -20 -46 -45 -23 -25 -54 -48 -68
-52 -14 -3 -36 -14 -49 -24 -12 -9 -45 -23 -72 -30 -28 -7 -50 -18 -50 -24 0
-30 -129 -115 -174 -115 -8 0 -18 -5 -21 -10 -4 -6 -9 -9 -13 -6 -4 2 -27 -7
-52 -19 -25 -13 -58 -30 -75 -38 -16 -8 -43 -29 -60 -46 -16 -18 -59 -46 -95
-62 -36 -17 -76 -36 -89 -42 -13 -6 -52 -37 -87 -68 -43 -38 -79 -61 -112 -70
-26 -7 -60 -21 -77 -31 -16 -10 -37 -18 -45 -18 -8 0 -30 -15 -50 -34 -37 -36
-140 -96 -165 -96 -8 0 -15 -6 -15 -13 0 -18 -60 -73 -90 -82 -14 -4 -36 -16
-49 -26 -13 -11 -28 -19 -33 -19 -6 0 -31 -18 -56 -41 -26 -23 -74 -54 -107
-70 -33 -15 -78 -46 -100 -69 -21 -22 -45 -40 -51 -40 -7 0 -39 -22 -71 -50
-32 -27 -64 -50 -70 -50 -7 0 -38 -22 -68 -50 -30 -27 -64 -50 -74 -50 -13 0
-21 -10 -25 -33 -3 -18 -15 -51 -26 -72 -11 -22 -20 -46 -20 -55 0 -9 -6 -24
-13 -35 -8 -11 -16 -29 -19 -40 -3 -11 -9 -27 -12 -35 -5 -13 1 -15 34 -12 22
2 46 0 53 -6 6 -5 79 -15 160 -22 81 -8 150 -17 153 -22 3 -4 25 -8 50 -8 l44
0 0 -53 c0 -57 -20 -87 -68 -102 -13 -4 -55 -39 -94 -79 -70 -72 -71 -73 -71
-127 0 -52 2 -55 53 -101 30 -26 62 -51 73 -54 10 -3 38 -19 62 -35 24 -16 49
-29 57 -29 8 0 33 -16 57 -36 37 -32 50 -37 109 -41 96 -7 94 -5 63 -65 -156
-295 -154 -277 -35 -297 44 -7 84 -16 89 -19 6 -4 48 -14 94 -24 68 -14 90
-23 117 -49 19 -18 34 -29 34 -25 0 5 7 3 16 -5 9 -8 51 -15 103 -17 71 -3 89
-1 100 12 8 9 29 16 51 16 24 0 66 14 116 40 44 22 104 53 134 69 30 15 79 38
108 51 28 13 52 27 52 32 0 4 7 8 15 8 25 0 108 46 134 74 14 14 30 26 37 26
13 0 78 35 104 56 8 6 29 15 47 19 19 4 48 24 73 51 22 24 45 44 51 44 6 0 36
14 66 30 33 18 69 30 92 30 45 0 97 24 111 51 6 11 21 19 36 19 13 0 27 7 31
15 6 17 64 45 92 45 9 0 39 23 66 50 38 39 56 50 80 50 22 0 41 10 65 35 27
27 42 35 70 35 24 0 43 7 55 20 10 11 31 20 46 20 15 0 40 5 54 12 18 8 29 8
33 2 4 -6 15 -13 25 -17 24 -9 23 -69 -3 -92 -29 -26 -25 -41 18 -62 47 -23
52 -52 17 -98 -17 -23 -39 -38 -68 -46 -33 -8 -65 -33 -153 -120 -61 -60 -118
-109 -126 -109 -9 0 -37 -17 -64 -39 -27 -21 -67 -46 -89 -55 -22 -9 -58 -34
-80 -56 -27 -26 -53 -41 -80 -45 -27 -5 -55 -21 -85 -49 -52 -47 -82 -66 -107
-66 -10 0 -59 -39 -108 -88 -79 -77 -176 -142 -211 -142 -5 0 -16 -21 -23 -47
-8 -27 -23 -66 -34 -88 -11 -22 -28 -56 -38 -76 -17 -34 -17 -36 2 -47 11 -7
59 -12 121 -12 79 0 105 -3 119 -16 16 -15 26 -15 86 -4 37 7 83 19 101 26 17
7 60 18 95 25 34 6 67 15 72 19 6 4 48 16 95 25 47 10 90 21 95 25 6 4 35 13
65 19 30 7 74 19 99 27 24 8 46 12 50 9 6 -7 -38 -44 -52 -45 -4 0 -33 -20
-65 -45 -31 -25 -60 -45 -64 -45 -5 0 -16 -7 -25 -16 -37 -32 -148 -114 -156
-114 -5 0 -35 -20 -67 -45 -32 -25 -63 -45 -68 -45 -5 0 -12 -7 -16 -15 -3 -8
-11 -15 -17 -15 -6 0 -40 -22 -75 -50 -35 -27 -67 -50 -71 -50 -3 0 -39 -25
-78 -55 -40 -30 -75 -55 -79 -55 -3 0 -32 -20 -64 -45 -31 -25 -63 -45 -69
-45 -7 0 -13 -4 -13 -8 0 -5 -29 -28 -65 -51 -39 -26 -65 -50 -65 -61 0 -12
22 -28 65 -50 60 -30 65 -35 65 -65 0 -30 -26 -59 -298 -322 -235 -228 -294
-290 -282 -297 8 -5 21 -18 28 -28 11 -15 28 -18 121 -18 94 0 110 3 125 19
11 12 36 21 69 24 81 8 120 18 149 38 14 11 29 19 33 19 4 0 19 8 33 19 15 10
47 21 72 24 34 4 51 13 70 35 18 22 42 35 90 47 42 11 75 27 95 45 l30 29 103
-50 c97 -47 114 -61 93 -73 -13 -9 -121 -153 -121 -163 0 -10 -172 -183 -183
-183 -14 0 -56 -35 -147 -123 -47 -46 -100 -90 -119 -99 -33 -16 -421 -394
-421 -411 0 -4 -21 -34 -46 -65 -25 -31 -50 -67 -55 -79 -5 -13 -13 -23 -19
-23 -5 0 -10 -5 -10 -11 0 -5 -25 -41 -55 -78 -30 -38 -55 -72 -55 -77 0 -5
-29 -66 -64 -135 -35 -69 -66 -142 -70 -162 -4 -20 -13 -49 -21 -64 -20 -38
-19 -63 3 -63 10 0 27 -7 38 -15 10 -8 33 -15 50 -15 40 0 64 -27 64 -72 0
-31 7 -42 54 -82 30 -25 58 -46 64 -46 5 0 17 -10 28 -21 17 -20 26 -21 102
-16 46 4 89 10 95 15 7 5 68 17 137 26 69 10 134 22 145 27 11 4 56 13 100 19
44 6 89 15 101 20 11 4 74 16 140 25 65 10 124 21 129 25 6 4 54 13 108 20 53
7 100 17 103 21 11 18 56 10 61 -11 3 -11 9 -20 14 -20 5 0 9 -22 9 -48 0 -36
5 -54 20 -67 11 -10 20 -28 20 -39 0 -12 9 -27 20 -34 11 -7 20 -18 20 -25 0
-7 13 -20 29 -30 41 -24 364 -26 387 -2 9 8 33 15 55 15 26 0 42 5 45 15 4 8
14 15 23 15 10 0 26 7 37 15 12 9 45 15 94 15 41 1 93 5 115 10 22 5 74 16
115 25 41 9 89 23 105 30 17 8 50 19 75 24 25 6 62 17 82 26 50 20 79 19 85
-4 3 -11 13 -21 24 -24 10 -3 19 -12 19 -20 0 -14 -13 -26 -150 -143 -36 -30
-68 -58 -71 -62 -65 -70 -205 -192 -220 -192 -9 0 -173 -138 -216 -182 -58
-60 -109 -125 -118 -151 -7 -22 -22 -37 -52 -51 -29 -14 -43 -28 -47 -46 -6
-32 -155 -177 -196 -191 -18 -7 -30 -19 -33 -37 -4 -17 -53 -73 -136 -155 -90
-88 -131 -136 -131 -151 0 -12 -5 -27 -12 -34 -17 -17 -16 -74 2 -79 8 -3 33
-13 55 -23 22 -9 78 -33 125 -54 96 -41 144 -45 230 -20 30 8 96 26 145 39 50
13 122 33 160 45 39 12 77 23 85 24 8 2 22 6 30 9 8 3 40 11 70 18 30 7 69 18
87 26 43 17 88 17 103 -2 14 -16 46 -20 54 -6 3 4 27 14 53 21 27 7 57 18 68
25 11 6 47 14 80 17 34 3 79 16 104 29 32 16 69 25 130 29 51 4 96 13 111 22
14 9 56 18 95 20 54 4 86 13 140 40 39 19 86 41 105 47 19 7 46 19 60 26 14 7
38 15 55 19 16 4 54 18 83 32 29 13 57 24 63 24 18 0 149 132 149 150 0 8 23
38 50 65 46 46 50 53 50 98 0 33 -7 58 -20 77 -11 15 -17 30 -14 32 3 4 -198
197 -225 215 -3 2 11 20 31 41 35 37 68 94 68 117 0 15 236 245 252 245 6 0
62 48 126 108 113 106 205 182 220 182 11 0 132 124 132 136 0 5 32 41 70 79
53 52 73 80 81 111 7 25 25 55 45 75 l34 33 0 113 0 113 -31 19 c-17 11 -40
33 -50 50 -19 32 -102 91 -126 91 -8 0 -27 10 -44 23 -28 20 -43 22 -190 25
-143 3 -162 2 -186 -16 -16 -10 -41 -19 -58 -19 -29 1 -103 -24 -155 -50 -14
-7 -45 -13 -68 -13 -28 0 -54 -7 -72 -20 -15 -11 -52 -25 -81 -31 -30 -6 -63
-20 -75 -30 -11 -11 -35 -19 -53 -19 -18 0 -47 -7 -64 -16 -59 -31 -72 -38
-146 -76 -41 -21 -84 -38 -98 -38 -13 0 -49 -13 -80 -30 -37 -20 -70 -30 -99
-30 -35 0 -56 -8 -101 -40 -32 -22 -63 -40 -69 -40 -6 0 -17 -7 -24 -15 -7 -8
-27 -15 -45 -15 -18 0 -46 -7 -61 -15 -36 -19 -108 -21 -100 -2 3 6 9 20 12
29 3 10 14 20 24 23 11 3 33 23 50 43 59 71 54 67 145 107 17 8 48 19 70 25
45 14 130 91 139 126 3 12 14 25 24 28 9 3 41 22 70 41 30 19 60 35 68 35 7 0
29 14 47 30 26 22 45 30 72 30 49 0 159 52 181 85 9 14 22 25 29 25 7 0 39 13
70 30 31 17 67 30 80 30 30 0 144 60 156 82 5 10 15 18 23 18 7 0 30 15 52 32
61 51 79 58 143 58 56 0 60 2 95 40 20 22 43 40 51 40 8 0 30 14 48 30 27 23
44 30 76 30 28 0 44 5 47 15 4 8 13 15 21 15 8 0 36 21 61 46 25 26 59 53 76
60 17 8 38 18 46 23 8 4 40 20 72 36 31 16 73 46 93 67 21 21 46 38 56 38 10
0 31 5 46 12 33 14 123 97 123 114 0 6 19 15 43 20 29 6 45 16 52 32 5 12 15
22 21 22 7 0 43 15 80 34 38 19 94 45 124 59 55 25 256 117 360 165 30 14 76
46 103 71 l47 45 0 109 c0 101 2 110 23 128 12 10 28 18 35 19 6 0 12 9 12 20
0 11 7 20 15 20 19 0 19 10 -1 57 -9 21 -20 47 -25 58 -21 52 -39 91 -49 105
-5 8 -14 27 -20 43 -6 16 -24 34 -44 44 -21 10 -39 27 -45 44 -7 21 -29 37
-90 68 l-82 41 -142 0 c-102 0 -148 -4 -162 -13 -11 -8 -42 -20 -70 -27 -27
-7 -54 -17 -59 -21 -6 -5 -19 -9 -30 -9 -12 0 -40 -11 -64 -25 -23 -13 -59
-27 -80 -31 -20 -4 -48 -12 -62 -19 -14 -7 -47 -21 -75 -30 -27 -9 -59 -20
-70 -25 -11 -4 -36 -14 -55 -21 -19 -7 -42 -18 -51 -26 -8 -7 -19 -13 -23 -13
-4 0 -21 -9 -37 -20 -15 -12 -53 -29 -82 -39 -30 -11 -74 -31 -97 -46 -36 -23
-58 -28 -129 -33 -52 -3 -101 -12 -123 -22 -21 -10 -38 -15 -38 -11 0 10 150
146 167 152 6 2 70 57 142 122 101 91 131 123 131 142 0 14 4 33 10 43 10 19
40 194 40 236 0 19 5 26 20 26 13 0 20 7 20 20 0 11 7 20 15 20 12 0 15 20 15
117 l0 116 -42 39 c-23 21 -52 41 -65 44 -13 4 -23 12 -23 19 0 7 -9 24 -21
39 -16 20 -29 26 -58 26 -25 0 -53 10 -84 31 -40 26 -53 30 -85 25 -20 -4 -59
-10 -87 -13 -27 -3 -61 -14 -74 -24 -13 -11 -38 -19 -55 -19 -17 0 -40 -7 -50
-15 -11 -8 -40 -15 -64 -15 -37 0 -51 -6 -83 -35 -24 -22 -49 -35 -67 -35 -15
0 -36 -7 -46 -15 -11 -8 -27 -15 -36 -15 -8 0 -21 -9 -28 -20 -8 -13 -23 -20
-42 -20 -43 0 -119 -20 -161 -41 -40 -21 -119 -26 -119 -8 0 17 22 93 29 101
4 4 5 26 3 48 l-4 40 -99 0 -99 0 0 29 c0 23 9 34 53 62 28 18 64 39 79 45 15
7 62 46 105 87 59 56 100 84 166 116 65 31 108 60 165 114 48 45 103 85 147
107 39 19 89 49 112 68 23 18 71 48 107 66 36 18 94 60 129 93 35 32 80 67 99
76 20 10 38 21 40 25 2 4 37 24 78 44 41 21 91 48 112 60 131 81 203 126 232
143 55 32 186 114 251 155 33 21 70 39 82 39 12 1 25 6 28 11 3 6 16 10 28 10
32 0 138 53 166 84 14 14 34 26 45 26 12 0 33 6 48 14 15 8 42 17 60 21 18 4
54 20 81 36 26 16 50 29 53 29 4 0 27 15 53 33 26 19 58 37 72 40 15 4 45 27
68 52 22 24 53 48 69 51 28 7 162 130 162 150 0 7 6 14 14 17 8 3 21 18 29 34
8 15 24 46 36 68 12 21 21 56 21 76 0 20 7 42 15 49 9 7 15 29 15 54 0 31 5
44 21 54 30 19 21 54 -18 72 -18 8 -33 23 -33 33 0 18 -20 23 -35 8 -6 -5 -46
-16 -90 -25 -44 -10 -89 -21 -100 -26 -18 -9 -130 -38 -165 -44 -9 -1 -20 -5
-25 -8 -6 -3 -26 -9 -45 -12 -54 -11 -229 -61 -265 -76 -65 -27 -181 -70 -190
-70 -5 0 -22 -6 -37 -14 -14 -8 -43 -19 -65 -26 -21 -6 -51 -18 -68 -25 -16
-7 -50 -19 -75 -26 -25 -7 -54 -19 -65 -26 -11 -7 -26 -13 -35 -13 -9 0 -32
-9 -53 -19 -20 -10 -49 -22 -64 -25 -16 -4 -36 -9 -46 -12 -15 -5 -17 -1 -11
23 4 15 18 36 30 46 13 10 26 33 30 52 3 19 10 35 15 35 5 0 37 27 71 59 79
74 146 120 257 177 47 24 95 50 106 56 61 38 122 75 140 86 11 7 28 15 37 18
66 23 129 68 185 135 35 41 63 80 63 86 0 7 -11 15 -25 19 -14 3 -42 15 -62
25 -54 28 -95 24 -188 -16 -16 -7 -46 -16 -65 -20 -19 -4 -39 -11 -45 -15 -5
-4 -39 -16 -75 -25 -36 -10 -69 -21 -75 -25 -8 -6 -114 -41 -135 -44 -3 -1 -9
-4 -15 -7 -5 -3 -32 -12 -60 -19 -27 -7 -54 -16 -60 -20 -5 -4 -37 -15 -70
-24 -33 -10 -73 -23 -90 -31 -16 -7 -46 -16 -65 -20 -19 -4 -39 -11 -45 -15
-12 -9 -126 -42 -130 -38 -6 6 8 58 15 58 5 0 35 17 67 38 56 36 128 74 166
86 9 3 20 18 23 33 5 22 22 38 77 71 91 54 102 60 157 98 25 17 63 33 85 37
28 4 49 16 70 40 17 19 48 45 71 59 30 20 43 36 53 68 9 32 37 67 110 140 54
55 109 102 124 105 26 7 27 9 27 80 0 79 0 79 -72 119 -44 24 -55 26 -183 26
-122 0 -140 -2 -162 -20 -17 -14 -41 -20 -72 -20 -26 0 -56 -7 -67 -15 -10 -8
-29 -15 -40 -15 -28 0 -92 -27 -123 -51 -14 -11 -40 -19 -65 -19 -22 0 -50 -7
-60 -15 -11 -8 -39 -15 -62 -15 -23 0 -58 -7 -79 -16 -20 -8 -40 -13 -42 -10
-3 3 2 21 11 40 9 19 16 40 16 48 0 7 7 26 15 41 27 51 29 91 6 111 -12 11
-21 25 -21 32 0 7 -9 19 -19 26 -18 12 -14 17 50 71 37 31 73 57 78 57 6 0 18
11 27 25 9 14 21 25 26 25 6 0 37 23 70 51 51 45 59 56 56 83 -3 26 -8 31 -33
34 -17 2 -35 -1 -40 -6z"/>
<path d="M4820 1580 c-21 -16 -41 -20 -116 -20 -69 0 -95 -4 -104 -15 -8 -10
-30 -15 -65 -15 -35 0 -57 -5 -65 -15 -7 -8 -22 -15 -34 -15 -12 0 -27 -9 -34
-20 -9 -14 -23 -20 -51 -20 -22 0 -43 -5 -47 -11 -4 -8 -29 -10 -70 -6 -40 3
-69 0 -77 -7 -21 -16 -77 -102 -77 -118 0 -7 -7 -22 -15 -32 -11 -15 -15 -50
-15 -141 0 -127 6 -145 45 -145 11 0 35 -9 53 -20 28 -17 50 -20 167 -20 l135
0 0 -41 c0 -32 -4 -42 -20 -46 -13 -3 -20 -14 -20 -29 0 -17 -53 -76 -197
-220 -109 -108 -211 -218 -226 -243 -16 -25 -54 -70 -83 -98 -30 -29 -54 -60
-54 -69 0 -10 -7 -25 -15 -34 -13 -15 -11 -19 28 -40 23 -13 65 -41 94 -62 29
-21 56 -38 60 -38 4 0 19 -9 33 -20 22 -17 41 -20 171 -20 118 0 152 3 180 17
19 10 69 19 116 23 45 3 88 11 95 18 7 7 38 12 76 12 45 0 75 6 101 19 40 22
123 41 177 41 35 0 135 40 164 65 8 7 35 16 60 20 33 5 56 17 85 45 22 22 58
43 80 49 25 6 56 26 80 51 21 22 45 40 52 40 12 0 117 38 178 65 17 8 48 19
70 26 22 6 45 15 51 20 6 5 13 6 16 4 3 -3 27 14 54 38 27 23 61 50 76 59 18
12 28 29 33 57 5 29 17 49 50 78 25 21 45 43 45 49 0 5 11 25 25 44 17 23 25
47 25 75 0 23 7 50 15 61 26 34 18 58 -26 84 -23 14 -56 37 -74 53 -18 15 -36
27 -39 27 -4 0 -24 11 -44 25 -26 18 -50 25 -82 25 -26 0 -65 9 -88 20 -35 17
-61 20 -176 20 -117 0 -140 -3 -171 -20 -24 -13 -54 -20 -90 -20 l-55 0 0 155
0 156 -30 6 c-17 3 -33 10 -36 14 -3 5 -16 9 -29 9 -13 0 -27 4 -30 10 -3 5
-31 21 -61 35 -46 21 -69 25 -152 25 -81 0 -101 -4 -122 -20z"/>
</g>
</svg>
