<svg xmlns="http://www.w3.org/2000/svg" width="512" height="512"><rect id="backgroundrect" width="100%" height="100%" x="0" y="0" fill="none" stroke="none"/><!--! Font Awesome Pro 6.1.1 by @fontawesome - https://fontawesome.com License - https://fontawesome.com/license (Commercial License) Copyright 2022 Fonticons, Inc. --><g class="currentLayer" style=""><title>Layer 1</title><path d="M458.8294594836235,151.1754594836235 c0.32500000000000007,4.548 0.32500000000000007,9.097 0.32500000000000007,13.645 c0,138.72 -105.583,298.558 -298.558,298.558 c-59.452,0 -114.68,-17.219 -161.137,-47.106 c8.447,0.974 16.568,1.299 25.34,1.299 c49.055,0 94.213,-16.568 130.274,-44.832 c-46.132,-0.975 -84.792,-31.188 -98.112,-72.772 c6.498,0.974 12.995,1.624 19.818,1.624 c9.421,0 18.843,-1.3 27.614,-3.573 c-48.081,-9.747 -84.143,-51.98 -84.143,-102.985 v-1.299 c13.969,7.797 30.214,12.67 47.431,13.319 c-28.264,-18.843 -46.781,-51.005 -46.781,-87.391 c0,-19.492 5.197,-37.36 14.294,-52.954 c51.655,63.675 129.3,105.258 216.365,109.807 c-1.624,-7.797 -2.599,-15.918 -2.599,-24.04 c0,-57.828 46.782,-104.934 104.934,-104.934 c30.213,0 57.502,12.67 76.67,33.137 c23.715,-4.548 46.456,-13.32 66.599,-25.34 c-7.798,24.366 -24.366,44.833 -46.132,57.827 c21.117,-2.273 41.584,-8.122 60.426,-16.243 c-14.292,20.791 -32.161,39.308 -52.628,54.253 z" id="svg_1" class="selected" fill="#ffffff" fill-opacity="1"/></g></svg>